<?xml version="1.0" standalone="no"?>
<!DOCTYPE svg PUBLIC "-//W3C//DTD SVG 20010904//EN"
 "http://www.w3.org/TR/2001/REC-SVG-20010904/DTD/svg10.dtd">
<svg version="1.0" xmlns="http://www.w3.org/2000/svg"
 width="920.000000pt" height="600.000000pt" viewBox="0 0 920.000000 600.000000"
 preserveAspectRatio="xMidYMid meet">

<g transform="translate(0.000000,600.000000) scale(0.100000,-0.100000)"
fill="#000000" stroke="none">
<path d="M4360 5993 c-656 -11 -1429 -121 -2186 -314 -296 -75 -303 -77 -308
-102 -19 -92 -23 -788 -6 -1012 27 -359 66 -627 136 -942 275 -1239 923 -2298
1909 -3123 258 -215 647 -490 695 -490 41 0 360 220 615 424 561 449 1033
1000 1383 1611 400 702 630 1439 728 2335 28 265 30 1188 1 1216 -14 15 -628
155 -907 208 -621 117 -1190 180 -1675 185 -110 1 -211 3 -225 4 -14 1 -86 1
-160 0z m630 -528 c488 -35 950 -120 1466 -272 l162 -48 7 -155 c9 -188 0
-745 -15 -890 -99 -985 -360 -1761 -835 -2480 -196 -296 -365 -499 -642 -770
-170 -167 -482 -430 -519 -438 -33 -8 -336 240 -548 447 -81 80 -190 193 -240
251 -740 841 -1158 1907 -1237 3155 -11 179 -9 868 2 880 7 6 250 75 404 114
449 113 910 187 1310 210 151 8 547 6 685 -4z"/>
</g>
</svg>
